<svg xmlns="http://www.w3.org/2000/svg" xmlns:xlink="http://www.w3.org/1999/xlink" viewBox="0 0 500 229"><defs><style>.cls-1,.cls-6{fill:none;}.cls-2{clip-path:url(#clip-path);}.cls-3{fill:#79acbb;}.cls-4{fill:#0b5730;}.cls-5{fill:#276aaa;}.cls-6{stroke:#fff;stroke-miterlimit:10;stroke-width:3px;}.cls-7{fill:#fff;}</style><clipPath id="clip-path"><path class="cls-1" d="M56,138.51a5.07,5.07,0,0,1-8.09.12c-2.87-3.71-5.57-7.19-8.17-10.75C28.45,112.34,18.14,96.19,11,78.23,7.19,68.75,4.51,59,5,48.67c.91-20.69,16.27-39,36.5-43.3C67.83-.29,92.79,16,98.05,42.51c1.88,9.42.4,18.63-2.47,27.67-5.16,16.29-13.45,31-22.93,45.08C67.4,123.05,61.8,130.6,56,138.51ZM51.9,25.35A22.88,22.88,0,0,0,28.82,48.57c.07,13,10.4,23,23.62,22.91,12.5-.1,22.57-10.56,22.49-23.35A22.9,22.9,0,0,0,51.9,25.35Z"/></clipPath></defs><title>logo</title><g id="icon"><g class="cls-2"><polygon class="cls-3" points="-2.34 63.42 -7.13 -8.91 87.72 -27.11 132.75 -0.77 98.26 93.12 -7.61 100.79 -2.34 63.42"/><polygon class="cls-4" points="3.45 42.12 108.76 42.88 81.22 149.73 38.13 164.77 -9.3 65.07 3.45 42.12"/><polygon class="cls-4" points="9.05 44.93 17.77 44.93 12.84 35.73 7.91 44.93 9.05 44.93"/><polygon class="cls-4" points="9.05 41.05 17.77 41.05 12.84 31.85 7.91 41.05 9.05 41.05"/><polygon class="cls-4" points="9.05 36.67 17.77 36.67 12.84 27.47 7.91 36.67 9.05 36.67"/><polygon class="cls-4" points="24.21 44.93 32.93 44.93 28 35.73 23.07 44.93 24.21 44.93"/><polygon class="cls-4" points="24.21 41.05 32.93 41.05 28 31.85 23.07 41.05 24.21 41.05"/><polygon class="cls-4" points="24.21 36.67 32.93 36.67 28 27.47 23.07 36.67 24.21 36.67"/><path class="cls-5" d="M-7.58,41.06S31.87,38.68,33.7,54.27C35.58,70.2,47,94.76,67,93.19,82.83,92,104.67,112.05,86.37,140s-43.83-1.95-63.66-28.38S-7.58,41.06-7.58,41.06Z"/><polygon class="cls-4" points="87.56 44.93 96.28 44.93 91.35 35.73 86.42 44.93 87.56 44.93"/><polygon class="cls-4" points="87.56 41.05 96.28 41.05 91.35 31.85 86.42 41.05 87.56 41.05"/><polygon class="cls-4" points="87.56 36.67 96.28 36.67 91.35 27.47 86.42 36.67 87.56 36.67"/><polygon class="cls-4" points="75.52 44.93 84.23 44.93 79.3 35.73 74.38 44.93 75.52 44.93"/><polygon class="cls-4" points="75.52 41.05 84.23 41.05 79.3 31.85 74.38 41.05 75.52 41.05"/><polygon class="cls-4" points="75.52 36.67 84.23 36.67 79.3 27.47 74.38 36.67 75.52 36.67"/><path class="cls-6" d="M4.05,41.18c2.13-1.08,7.63,2,11.27,12.75C17.39,60.06,25.09,92.72,41,93.12c9.7.25,30-2.24,37.43,2.52,0,0,7.76,4.53,7.89,6.6"/><path class="cls-6" d="M6,41.27c2.13-1.08,16.75,1.31,20.39,12,2.07,6.13,9.79,38.39,25.71,39.19,9.44.47,20.18.22,21.44,1.06"/></g><path d="M51.9,25.35a22.9,22.9,0,0,1,23,22.78c.08,12.79-10,23.25-22.49,23.35-13.22.1-23.55-9.92-23.62-22.91A22.88,22.88,0,0,1,51.9,25.35Zm-.2,34.43A11.25,11.25,0,0,0,63.25,48.51a11.4,11.4,0,1,0-22.79-.1A11.3,11.3,0,0,0,51.7,59.78Z"/><path class="cls-7" d="M51.57,68.86A20.27,20.27,0,0,1,31.4,48.45a20.46,20.46,0,1,1,40.91.18A20.21,20.21,0,0,1,51.57,68.86Z"/></g><g id="ontario_summer" data-name="ontario summer"><path d="M110,39.76a34.32,34.32,0,0,1,2.32-13.07,26.35,26.35,0,0,1,15.82-15.34,35.92,35.92,0,0,1,23.58,0,27.67,27.67,0,0,1,9.52,5.82,26.87,26.87,0,0,1,6.39,9.52A34.32,34.32,0,0,1,170,39.76a35.47,35.47,0,0,1-2.27,13.12,26.5,26.5,0,0,1-6.3,9.56,27,27,0,0,1-9.52,5.83,34.93,34.93,0,0,1-11.93,2,34.06,34.06,0,0,1-11.94-2,26.72,26.72,0,0,1-9.47-5.92,27.51,27.51,0,0,1-6.25-9.56A34.87,34.87,0,0,1,110,39.76Zm17,0q0,8.63,3.5,12.88a12.56,12.56,0,0,0,18.85,0q3.5-4.26,3.5-12.88T149.49,27a11.48,11.48,0,0,0-9.43-4.27,11.71,11.71,0,0,0-9.42,4.22Q127.09,31.14,127.09,39.76Z"/><path d="M231.45,66.56a8.54,8.54,0,0,1-3.83,2,22.49,22.49,0,0,1-6,.71,20.91,20.91,0,0,1-6.62-1c-2.09-.7-3.79-2.37-5.12-5l-9.38-19.13q-1.41-2.94-2.55-5.54c-.76-1.74-1.58-3.74-2.46-6l-.57.1q.38,5.12.42,10.42t.05,10.41V68.17a26,26,0,0,1-3.17.57A31.84,31.84,0,0,1,188,69a21.25,21.25,0,0,1-3.69-.29,5.73,5.73,0,0,1-2.65-1.13A5.44,5.44,0,0,1,180,65.29a10.8,10.8,0,0,1-.57-3.84V14.1a7.93,7.93,0,0,1,4.07-2.85,17.92,17.92,0,0,1,5.87-.94,20.34,20.34,0,0,1,6.68,1.09,9,9,0,0,1,5.07,5l9.47,19.13c.95,2,1.8,3.8,2.56,5.54s1.57,3.74,2.46,6l.47-.09q-.37-5.12-.47-10.23t-.1-10.23V11.16a26.67,26.67,0,0,1,3.18-.57,31.67,31.67,0,0,1,4.21-.28,11.38,11.38,0,0,1,6.35,1.47c1.45,1,2.17,3,2.17,6.1Z"/><path d="M241.11,24.42a12.49,12.49,0,0,1-1.23-2.84,12.46,12.46,0,0,1-.57-3.79c0-2.46.56-4.23,1.66-5.3a5.9,5.9,0,0,1,4.31-1.61h41.29a11.88,11.88,0,0,1,1.23,2.84,12.46,12.46,0,0,1,.57,3.79q0,3.69-1.66,5.3a5.92,5.92,0,0,1-4.3,1.61H271.89V68.17a25.91,25.91,0,0,1-3.27.57,34.58,34.58,0,0,1-4.4.29,18.92,18.92,0,0,1-3.83-.34,6.78,6.78,0,0,1-2.8-1.18,5.12,5.12,0,0,1-1.7-2.37,11.47,11.47,0,0,1-.57-4V24.42Z"/><path d="M304.85,12.86a20.12,20.12,0,0,1,4.88-1.8,26.34,26.34,0,0,1,6.58-.85,23.56,23.56,0,0,1,8.38,1.38,7.27,7.27,0,0,1,4.69,4.31q1.71,4.92,3.7,11.45t4,13.5q2,7,3.89,13.73t3.31,12a7.69,7.69,0,0,1-3.41,2.13,16.07,16.07,0,0,1-5.4.81,16.66,16.66,0,0,1-3.83-.38A6.72,6.72,0,0,1,329.05,68a5.55,5.55,0,0,1-1.61-2,17.53,17.53,0,0,1-1.09-2.85l-1.7-6.53H307.5c-.5,1.89-1,3.85-1.51,5.87s-1,4-1.52,5.87a22.72,22.72,0,0,1-2.79.81,16.43,16.43,0,0,1-3.55.33c-3.22,0-5.61-.55-7.15-1.66a5.31,5.31,0,0,1-2.32-4.59A9.33,9.33,0,0,1,289,60.6c.25-.89.53-1.93.85-3.13.44-1.7,1.05-3.82,1.84-6.34s1.66-5.26,2.61-8.2,2-6,3-9l3-8.76c1-2.75,1.81-5.19,2.6-7.34S304.41,14,304.85,12.86Zm11.37,12.22c-.89,2.65-1.88,5.61-3,8.86s-2.1,6.55-3,9.89H322q-1.32-5.11-2.7-10c-.91-3.25-1.75-6.17-2.5-8.76Z"/><path d="M368.5,50V68.17a26.62,26.62,0,0,1-3.27.57,34.73,34.73,0,0,1-4.41.29,18.92,18.92,0,0,1-3.83-.34,6.4,6.4,0,0,1-2.75-1.18,5.35,5.35,0,0,1-1.66-2.37,11.74,11.74,0,0,1-.56-4V16.56a4.15,4.15,0,0,1,1.09-3.08,7.67,7.67,0,0,1,3-1.75,35.44,35.44,0,0,1,7.48-1.66,74.46,74.46,0,0,1,9.09-.52q13.08,0,19.7,5.49T399,29.91a16.6,16.6,0,0,1-3,10,21.67,21.67,0,0,1-7.2,6.44q3.42,4.65,6.73,8.71a57.17,57.17,0,0,1,5.21,7.39,9,9,0,0,1-3.46,5.07,9.59,9.59,0,0,1-5.64,1.75,12.33,12.33,0,0,1-3.6-.47,8.91,8.91,0,0,1-2.65-1.33,11.07,11.07,0,0,1-2.08-2.08,29.24,29.24,0,0,1-1.8-2.65l-8-12.79Zm6-12.6a8.26,8.26,0,0,0,5.68-1.84,6.9,6.9,0,0,0,2.09-5.45,6.55,6.55,0,0,0-2.32-5.44c-1.55-1.24-4-1.85-7.34-1.85a22.82,22.82,0,0,0-2.28.09c-.56.07-1.2.16-1.89.29v14.2Z"/><path d="M426.27,68.17a26.62,26.62,0,0,1-3.27.57,34.58,34.58,0,0,1-4.4.29,19,19,0,0,1-3.84-.34A6.68,6.68,0,0,1,412,67.51a5.13,5.13,0,0,1-1.71-2.37,11.47,11.47,0,0,1-.57-4v-50c.7-.13,1.8-.3,3.32-.52a30.19,30.19,0,0,1,4.35-.33,19.84,19.84,0,0,1,3.84.33A6.74,6.74,0,0,1,424,11.82a5.13,5.13,0,0,1,1.71,2.37,11.53,11.53,0,0,1,.57,4Z"/><path d="M435.74,39.76a34.32,34.32,0,0,1,2.32-13.07,26.29,26.29,0,0,1,15.81-15.34,36,36,0,0,1,23.59,0A27.62,27.62,0,0,1,487,17.17a26.76,26.76,0,0,1,6.4,9.52,34.52,34.52,0,0,1,2.32,13.07,35.27,35.27,0,0,1-2.28,13.12,26.35,26.35,0,0,1-6.29,9.56,27,27,0,0,1-9.52,5.83,35,35,0,0,1-11.94,2,34,34,0,0,1-11.93-2,26.63,26.63,0,0,1-9.47-5.92A27.51,27.51,0,0,1,438,52.74,34.66,34.66,0,0,1,435.74,39.76Zm17,0q0,8.63,3.51,12.88a12.54,12.54,0,0,0,18.84,0q3.51-4.26,3.51-12.88T475.18,27a11.45,11.45,0,0,0-9.42-4.27,11.69,11.69,0,0,0-9.42,4.22Q452.79,31.14,452.78,39.76Z"/><path d="M129.17,118c-2.78-.94-5.3-1.91-7.58-2.89a23,23,0,0,1-5.87-3.55,14.53,14.53,0,0,1-3.83-5,16.26,16.26,0,0,1-1.38-7,15.49,15.49,0,0,1,6.21-12.88q6.19-4.83,17.38-4.83a47.21,47.21,0,0,1,7.57.56,22.68,22.68,0,0,1,6,1.76,10.44,10.44,0,0,1,3.93,3A6.89,6.89,0,0,1,153,91.53a7.55,7.55,0,0,1-1.14,4.21,11.69,11.69,0,0,1-2.75,3,21.84,21.84,0,0,0-5.58-2.32,28.2,28.2,0,0,0-7.67-1c-2.85,0-4.93.39-6.26,1.18a3.46,3.46,0,0,0-2,3,2.77,2.77,0,0,0,1.23,2.32,12.65,12.65,0,0,0,3.69,1.65l5,1.61q8.9,2.85,13.69,7.25t4.78,12a15.75,15.75,0,0,1-6.35,13q-6.34,5-18.66,5a42.82,42.82,0,0,1-8.09-.71,25.26,25.26,0,0,1-6.54-2.08,12.08,12.08,0,0,1-4.35-3.41,7.45,7.45,0,0,1-1.57-4.69,7.14,7.14,0,0,1,1.61-4.69,12.43,12.43,0,0,1,3.51-3,25.55,25.55,0,0,0,6.49,3.6,22.58,22.58,0,0,0,8.38,1.51q4.63,0,6.53-1.42a4.1,4.1,0,0,0,1.9-3.31,3.25,3.25,0,0,0-1.52-2.89,19.69,19.69,0,0,0-4.26-1.94Z"/><path d="M215.92,119.65a24,24,0,0,1-1.75,9.33,19.79,19.79,0,0,1-5.07,7.2,22.76,22.76,0,0,1-8,4.59,36.36,36.36,0,0,1-21.4,0,22.76,22.76,0,0,1-8.05-4.59,19.79,19.79,0,0,1-5.07-7.2,24,24,0,0,1-1.75-9.33V83.48c.69-.13,1.8-.3,3.32-.53a30.19,30.19,0,0,1,4.35-.33,19.91,19.91,0,0,1,3.84.33,6.94,6.94,0,0,1,2.79,1.19,5.13,5.13,0,0,1,1.71,2.37,11.5,11.5,0,0,1,.56,4v28.89a9.7,9.7,0,0,0,2.51,7.1,9.57,9.57,0,0,0,13,0,9.81,9.81,0,0,0,2.46-7.1V83.48c.69-.13,1.8-.3,3.31-.53a30.43,30.43,0,0,1,4.36-.33,19.91,19.91,0,0,1,3.84.33,6.94,6.94,0,0,1,2.79,1.19,5,5,0,0,1,1.7,2.37,11.47,11.47,0,0,1,.57,4Z"/><path d="M267.63,126.76a9.2,9.2,0,0,1-3.17,1.65,14.61,14.61,0,0,1-4.5.62,15.85,15.85,0,0,1-5.63-.85,4.53,4.53,0,0,1-2.89-2.94q-2.66-8.33-4.36-13.49t-2.65-9H244c-.19,3.73-.34,7.12-.43,10.18s-.16,6.05-.19,9-.1,5.84-.19,8.81-.24,6.25-.43,9.85a16.53,16.53,0,0,1-3.22.8,24.18,24.18,0,0,1-4,.34A13.2,13.2,0,0,1,229,140.3q-2.32-1.32-2.32-4.83l2.74-48.3a9,9,0,0,1,3.32-2.65A14.94,14.94,0,0,1,240,83.1a16.5,16.5,0,0,1,7.86,1.56A9.27,9.27,0,0,1,252,89.73c.56,1.51,1.18,3.25,1.84,5.21s1.33,4,2,6.06,1.31,4.15,1.94,6.2,1.2,3.9,1.71,5.54H260q2.28-8,4.55-15.39t4.16-12.45a14.8,14.8,0,0,1,3.65-1.28,21.67,21.67,0,0,1,5-.52,18.09,18.09,0,0,1,7.58,1.37,5.46,5.46,0,0,1,3.41,3.93c.25,1.26.52,3.21.8,5.82s.59,5.58.9,8.86.63,6.76.95,10.42.61,7.18.9,10.56.52,6.47.71,9.28.32,5,.38,6.49a12.45,12.45,0,0,1-3.36,1.37,19.79,19.79,0,0,1-4.5.43,13.46,13.46,0,0,1-6.06-1.24c-1.65-.81-2.53-2.43-2.65-4.83q-.57-10.32-.72-18.56t-.42-13.83h-.48q-.94,3.7-2.74,9.29T267.63,126.76Z"/><path d="M343.11,126.76a9.2,9.2,0,0,1-3.17,1.65,14.57,14.57,0,0,1-4.5.62,15.85,15.85,0,0,1-5.63-.85,4.53,4.53,0,0,1-2.89-2.94q-2.66-8.33-4.36-13.49c-1.13-3.44-2-6.46-2.65-9h-.47q-.29,5.6-.43,10.18c-.09,3.07-.16,6.05-.19,9s-.09,5.84-.19,8.81-.23,6.25-.42,9.85a16.92,16.92,0,0,1-3.22.8,24.4,24.4,0,0,1-4,.34,13.23,13.23,0,0,1-6.49-1.33q-2.32-1.32-2.32-4.83L305,87.17a9,9,0,0,1,3.31-2.65,15,15,0,0,1,7.2-1.42,16.47,16.47,0,0,1,7.86,1.56,9.27,9.27,0,0,1,4.17,5.07q.86,2.26,1.84,5.21t2,6.06c.67,2.08,1.31,4.15,1.94,6.2s1.2,3.9,1.71,5.54h.47q2.28-8,4.55-15.39t4.17-12.45a14.57,14.57,0,0,1,3.64-1.28,21.73,21.73,0,0,1,5-.52,18.06,18.06,0,0,1,7.58,1.37,5.46,5.46,0,0,1,3.41,3.93c.25,1.26.52,3.21.81,5.82s.58,5.58.89,8.86.64,6.76,1,10.42.62,7.18.9,10.56.52,6.47.71,9.28.32,5,.38,6.49A12.2,12.2,0,0,1,365,141.2a19.79,19.79,0,0,1-4.5.43,13.46,13.46,0,0,1-6.06-1.24c-1.64-.81-2.53-2.43-2.65-4.83q-.57-10.32-.71-18.56t-.43-13.83h-.47q-1,3.7-2.75,9.29T343.11,126.76Z"/><path d="M378.91,92.28a8.17,8.17,0,0,1,8.81-8.8H419a11.1,11.1,0,0,1,1.19,2.74,12.53,12.53,0,0,1,.52,3.6q0,3.6-1.56,5.12A5.69,5.69,0,0,1,415,96.45H395v8.81h21.31a11.49,11.49,0,0,1,1.19,2.7,12,12,0,0,1,.52,3.55q0,3.6-1.52,5.11a5.51,5.51,0,0,1-4.07,1.52H395v9.94h24.34a11.58,11.58,0,0,1,1.19,2.75,12.53,12.53,0,0,1,.52,3.6q0,3.6-1.56,5.16a5.6,5.6,0,0,1-4.12,1.56H387.72a8.18,8.18,0,0,1-8.81-8.81Z"/><path d="M447.29,122.31v18.18a25.91,25.91,0,0,1-3.27.57,34.55,34.55,0,0,1-4.4.28,19.91,19.91,0,0,1-3.84-.33,6.48,6.48,0,0,1-2.74-1.18,5.27,5.27,0,0,1-1.66-2.37,11.53,11.53,0,0,1-.57-4V88.87a4.13,4.13,0,0,1,1.09-3.07,7.88,7.88,0,0,1,3-1.76,35.71,35.71,0,0,1,7.49-1.65,74.46,74.46,0,0,1,9.09-.52q13.07,0,19.7,5.49t6.63,14.87a16.62,16.62,0,0,1-3,10,21.78,21.78,0,0,1-7.2,6.44q3.4,4.64,6.72,8.71a55.55,55.55,0,0,1,5.21,7.39,8.88,8.88,0,0,1-3.45,5.06,9.65,9.65,0,0,1-5.64,1.76,12,12,0,0,1-3.6-.48,8.77,8.77,0,0,1-2.65-1.32,10.84,10.84,0,0,1-2.08-2.09,24.59,24.59,0,0,1-1.8-2.65l-8-12.78Zm6-12.6a8.26,8.26,0,0,0,5.68-1.85,6.87,6.87,0,0,0,2.08-5.44A6.54,6.54,0,0,0,458.7,97q-2.31-1.84-7.34-1.85a22.26,22.26,0,0,0-2.27.1c-.57.06-1.2.16-1.89.28v14.21Z"/></g><g id="find_yourself_at_home" data-name="find yourself at home"><path class="cls-5" d="M51.08,182.07a8.72,8.72,0,0,1-.67,1.34,3,3,0,0,1-.7.78,2.19,2.19,0,0,1-.86.36,6.31,6.31,0,0,1-1.13.09c-1.83-.16-3.41-.27-4.72-.35s-2.48-.12-3.5-.12a24.92,24.92,0,0,0-2.61.12,13.66,13.66,0,0,0-2.21.41c-.29.47-.73,1.21-1.31,2.22s-1.24,2.17-1.95,3.46-1.44,2.68-2.18,4.14-1.42,2.87-2,4.21a39.33,39.33,0,0,1-3.61,6.55c-1.07,1.44-2,2.16-2.71,2.16a3.1,3.1,0,0,1-1.94-.48,1.71,1.71,0,0,1-.6-1.42,9.2,9.2,0,0,1,.8-3.11c.54-1.34,1.28-3,2.24-4.87.35-.7.73-1.45,1.15-2.25l1.27-2.4,1.26-2.34,1.11-2.06L27,187c.22-.43.36-.71.42-.85s.1-.26.13-.32l.06-.13a.18.18,0,0,0,0-.06l0-.13h-.52a7.2,7.2,0,0,1-1.79-.18.76.76,0,0,1-.67-.76,2,2,0,0,1,.26-.82A5.47,5.47,0,0,1,26.32,182a5.88,5.88,0,0,1,1.48-.86,4.23,4.23,0,0,1,1.31-.28H30c.53-1.07,1-2.14,1.58-3.22l1.58-3.21a29.87,29.87,0,0,1,3-4.94,13.9,13.9,0,0,1,3.34-3.19,12.25,12.25,0,0,1,4-1.71,22.17,22.17,0,0,1,5-.51c1.71,0,3.08.05,4.11.14a17.28,17.28,0,0,1,2.14.3,2.72,2.72,0,0,1,1.66,1.09,3.2,3.2,0,0,1,.48,1.71,4.35,4.35,0,0,1-.25,1.46,5.42,5.42,0,0,1-.67,1.34,4.25,4.25,0,0,1-1,1,1.83,1.83,0,0,1-1.09.38,1.22,1.22,0,0,1-.56-.11c-.43-.2-.81-.37-1.15-.51a5.78,5.78,0,0,0-1-.35,7.55,7.55,0,0,0-1.19-.2c-.43,0-1-.05-1.62-.05s-1.45,0-2.35,0l-3.32.13-1.48,2.56-1.34,2.34-1.35,2.34c-.45.79-1,1.65-1.5,2.59a21.22,21.22,0,0,1,2.35-.69c.85-.21,1.72-.38,2.6-.51s1.78-.25,2.68-.33,1.75-.11,2.57-.11a10.21,10.21,0,0,1,3.2.35,1.37,1.37,0,0,1,1,1.43q0,.24,0,.69A2.5,2.5,0,0,1,51.08,182.07Z"/><path class="cls-5" d="M48.42,187.5a3.2,3.2,0,0,1,1.14-1.17,2.8,2.8,0,0,1,3.23.37,2.34,2.34,0,0,1,.81,1.83c0,.17-.05.35-.08.52a1.54,1.54,0,0,1-.19.53l-.67,1.29c-.17.35-.34.67-.48,1s-.29.6-.43.89-.3.64-.49,1-.5,1-.79,1.59-.57,1.17-.83,1.77a18.06,18.06,0,0,0-.68,1.79,5.47,5.47,0,0,0-.27,1.6c0,.53.13.88.39,1a2.08,2.08,0,0,0,1.13.25,4.79,4.79,0,0,0,1.71-.35,11.19,11.19,0,0,0,1.79-.91,15.87,15.87,0,0,0,1.79-1.27c.58-.48,1.13-1,1.65-1.45s1-.95,1.43-1.4.81-.85,1.1-1.2a1.71,1.71,0,0,1,1.17-.55,1,1,0,0,1,.86.46,2.07,2.07,0,0,1,.34,1.2,3.67,3.67,0,0,1-.34,1.44,4.2,4.2,0,0,1-1.1,1.43c-1,1-2,2-3,2.91a27.23,27.23,0,0,1-3.17,2.45,17.31,17.31,0,0,1-3.26,1.71,8.93,8.93,0,0,1-3.3.65,5.41,5.41,0,0,1-3.73-1.22A4.81,4.81,0,0,1,42.75,202a9.29,9.29,0,0,1,.38-2.63,20.63,20.63,0,0,1,.91-2.5q.52-1.22,1.11-2.34a23.41,23.41,0,0,0,1-2.15q.15-.37.51-1.17c.25-.53.5-1.06.78-1.61Zm3.22-6.57a4.13,4.13,0,0,1,.25-1.39,3.92,3.92,0,0,1,.74-1.3,4.15,4.15,0,0,1,1.24-1,3.91,3.91,0,0,1,1.77-.38,3.36,3.36,0,0,1,2.37.66,2.21,2.21,0,0,1,.67,1.65,3.91,3.91,0,0,1-.22,1.23,4,4,0,0,1-.65,1.24,3.66,3.66,0,0,1-1.14,1A3.4,3.4,0,0,1,55,183a4.22,4.22,0,0,1-2.54-.57A2.07,2.07,0,0,1,51.64,180.93Z"/><path class="cls-5" d="M63.3,188.47a4.58,4.58,0,0,1,1.46-1.87,3,3,0,0,1,1.73-.62,1.82,1.82,0,0,1,1.26.52,1.93,1.93,0,0,1,.55,1.5,4.11,4.11,0,0,1-.09.82,3.74,3.74,0,0,1-.32.94,9.37,9.37,0,0,1,1.84-1.69,17,17,0,0,1,2.65-1.54,19.2,19.2,0,0,1,3-1.13,10.77,10.77,0,0,1,2.91-.44,4.31,4.31,0,0,1,2.59.75,2.9,2.9,0,0,1,1,2.53,8.23,8.23,0,0,1-.32,2.19,17.5,17.5,0,0,1-.84,2.28c-.34.76-.72,1.5-1.14,2.24s-.83,1.41-1.24,2.06l-1.13,1.77c-.34.53-.61,1-.8,1.33a1.67,1.67,0,0,0-.38,1.08.63.63,0,0,0,.15.41.57.57,0,0,0,.46.17,2.71,2.71,0,0,0,.47,0,1.6,1.6,0,0,0,.64-.31A27.58,27.58,0,0,0,81,200c1.1-.58,2.15-1.2,3.17-1.86s1.94-1.3,2.79-2,1.55-1.24,2.12-1.76a1.54,1.54,0,0,1,.47-.3A1.17,1.17,0,0,1,90,194a.89.89,0,0,1,.77.38,1.54,1.54,0,0,1,.28,1,4.51,4.51,0,0,1-.57,2,6.36,6.36,0,0,1-1.8,2.07l-3.06,2.2c-.92.66-1.87,1.28-2.83,1.85a31.08,31.08,0,0,1-3.1,1.61,28.93,28.93,0,0,1-3.87,1.39c-.51.15-1,.27-1.39.35a6.26,6.26,0,0,1-1.16.12,2.75,2.75,0,0,1-2.26-.87,3.63,3.63,0,0,1-.72-2.41c0-.13,0-.27,0-.39s0-.27,0-.43a6.76,6.76,0,0,1,.48-2,20.75,20.75,0,0,1,1-2.23c.4-.76.83-1.51,1.28-2.26s.86-1.46,1.24-2.14.7-1.27.95-1.79a3.25,3.25,0,0,0,.38-1.29,1.15,1.15,0,0,0-.25-.75.91.91,0,0,0-.74-.3,6.36,6.36,0,0,0-3.56,1.11A16.32,16.32,0,0,0,68,194a32.1,32.1,0,0,0-2.69,3.44c-.82,1.2-1.54,2.29-2.16,3.24a17.35,17.35,0,0,0-1.07,2.06c-.32.73-.66,1.42-1,2.05a6.58,6.58,0,0,1-1.18,1.58,2.3,2.3,0,0,1-1.65.63,2.06,2.06,0,0,1-1.61-.65,2.24,2.24,0,0,1-.59-1.58,5.47,5.47,0,0,1,.41-1.6q.4-1.11,1-2.58c.43-1,.91-2,1.45-3.14s1.07-2.23,1.61-3.33,1-2.14,1.53-3.12S63,189.15,63.3,188.47Z"/><path class="cls-5" d="M104.23,200.28a.33.33,0,0,0,0,.15.52.52,0,0,1,0,.14,2.56,2.56,0,0,0,.26,1.1.88.88,0,0,0,.85.57.82.82,0,0,0,.35-.06A13.61,13.61,0,0,0,109,200.6a33,33,0,0,0,3.29-2.37,34,34,0,0,0,2.91-2.63c.89-.89,1.62-1.69,2.21-2.39a1.14,1.14,0,0,1,.91-.5,1,1,0,0,1,.77.41,1.71,1.71,0,0,1,.34,1.11,3.67,3.67,0,0,1-.31,1.31,6.69,6.69,0,0,1-1,1.64q-1.73,1.9-3.54,3.66a36.37,36.37,0,0,1-3.65,3.11,20,20,0,0,1-3.67,2.18,8.81,8.81,0,0,1-3.58.82,4.56,4.56,0,0,1-3.36-1.22,4.9,4.9,0,0,1-1.23-3.64v-.3a1.55,1.55,0,0,1,0-.31,9.47,9.47,0,0,1-1.73,2.24,12.09,12.09,0,0,1-4.91,2.83,9,9,0,0,1-2.6.4,6.29,6.29,0,0,1-2-.3,3.87,3.87,0,0,1-1.56-.93,4.46,4.46,0,0,1-1-1.64,7.05,7.05,0,0,1-.36-2.4A14.14,14.14,0,0,1,85.7,197a16.92,16.92,0,0,1,2-4.06,18.4,18.4,0,0,1,2.87-3.34A21.49,21.49,0,0,1,94,187.11a16.9,16.9,0,0,1,3.46-1.59,10.39,10.39,0,0,1,3.16-.56,6.72,6.72,0,0,1,2.86.56,4,4,0,0,1,1.09.79,4.67,4.67,0,0,1,.23-.5c.19-.47.37-.87.53-1.21s.26-.59.32-.75.22-.58.49-1.23.59-1.4,1-2.26.76-1.8,1.17-2.8.81-1.93,1.16-2.8.65-1.64.91-2.27.4-1,.46-1.21a7.48,7.48,0,0,1,.56-1.42,5,5,0,0,1,.83-1.2,3.86,3.86,0,0,1,1.13-.82,3.4,3.4,0,0,1,1.46-.3,3.29,3.29,0,0,1,1.84.48,2.06,2.06,0,0,1,.73,1.86,5.07,5.07,0,0,1-.14,1.14c-.1.39-.21.77-.34,1.14s-.26.73-.41,1.09-.28.7-.39,1q-1.47,2.93-3.07,6.36t-3.19,6.91c-1.05,2.32-2.06,4.58-3,6.79S105,198.51,104.23,200.28Zm-.87-11.43a12,12,0,0,0-3.69.76,13,13,0,0,0-4.06,2.27,13.16,13.16,0,0,0-3.11,3.69,11.31,11.31,0,0,0-1.45,5q0,1.17,1,1.17a5.54,5.54,0,0,0,2.34-.51,9.23,9.23,0,0,0,2.12-1.37,14.86,14.86,0,0,0,1.89-2A26.57,26.57,0,0,0,100,195.6c.5-.8.94-1.59,1.34-2.38s.75-1.52,1-2.21c.1-.21.24-.51.41-.9S103.14,189.32,103.36,188.85Z"/><path class="cls-5" d="M146.39,187.68a12.93,12.93,0,0,1,1.39-1,8.33,8.33,0,0,1,1-.5,3,3,0,0,1,.75-.19c.22,0,.45,0,.68,0a1,1,0,0,1,.88.46,1.81,1.81,0,0,1,.26.95,2.14,2.14,0,0,1-.14.76l-6.55,13.65a27,27,0,0,1,3.23-2.06c1.22-.67,2.39-1.28,3.51-1.81s2.08-1,2.89-1.3a7.17,7.17,0,0,1,1.39-.5,1.76,1.76,0,0,1,1.29.55,1.92,1.92,0,0,1,.55,1.41,3,3,0,0,1-.57,1.61,5.67,5.67,0,0,1-2,1.63c-1.37.76-2.55,1.41-3.57,1.95s-1.91,1-2.69,1.44-1.47.82-2.07,1.17-1.18.72-1.71,1.09-1.07.76-1.58,1.18-1.08.91-1.68,1.48c-.45,1.17-.9,2.29-1.33,3.36s-.84,2-1.2,2.83-.66,1.49-.89,2l-.38.82c-1.58,3.28-3.32,4.91-5.21,4.91a2.52,2.52,0,0,1-1.9-.77,2.93,2.93,0,0,1-.73-2.09,9.6,9.6,0,0,1,.31-2.44,11.91,11.91,0,0,1,1.08-2.68,31.37,31.37,0,0,1,2.05-3.26q1.26-1.8,3.2-4.22l5.84-11.84a53.75,53.75,0,0,1-7.95,7.95q-3.57,2.75-6.66,2.75a3,3,0,0,1-1.7-.46,1.64,1.64,0,0,1-.7-1.5,9.37,9.37,0,0,1,.7-3.31c.27-.66.55-1.27.82-1.82s.55-1.11.85-1.67.6-1.15.92-1.8.67-1.37,1.05-2.18.8-1.74,1.26-2.8,1-2.31,1.53-3.73a3.79,3.79,0,0,1,3.34-2.16,2.7,2.7,0,0,1,1.53.42,1.3,1.3,0,0,1,.63,1.13,1.48,1.48,0,0,1-.12.61l-5.35,11.14a3.38,3.38,0,0,0-.41,1.34c0,.3.12.44.35.44a1.56,1.56,0,0,0,.82-.32,6.58,6.58,0,0,0,.94-.73Z"/><path class="cls-5" d="M167.65,185a11,11,0,0,1,2.38.29,7.32,7.32,0,0,1,2.35,1,5.79,5.79,0,0,1,1.8,1.85,5.29,5.29,0,0,1,.72,2.85,9.75,9.75,0,0,1-.24,2,15,15,0,0,1-.7,2.35,1.76,1.76,0,0,0,.67.5,2.25,2.25,0,0,0,.82.14,3.12,3.12,0,0,0,1.36-.35,10,10,0,0,0,1.54-.9,18.92,18.92,0,0,0,1.58-1.26c.52-.47,1-.94,1.49-1.4s.89-.92,1.27-1.33l.95-1.07a.67.67,0,0,1,.5-.21.94.94,0,0,1,.73.43,2,2,0,0,1,.32,1.18,4.39,4.39,0,0,1-.45,1.76,6.66,6.66,0,0,1-1.69,2.07l-1.6,1.76a24.34,24.34,0,0,1-1.93,1.87,13.51,13.51,0,0,1-2.14,1.49,4.54,4.54,0,0,1-2.22.61,4.92,4.92,0,0,1-1.48-.23,5.43,5.43,0,0,1-1.44-.76,17.8,17.8,0,0,1-2.4,3,14.63,14.63,0,0,1-3,2.31,15.44,15.44,0,0,1-3.56,1.51,15,15,0,0,1-4.08.54,6.6,6.6,0,0,1-1.9-.33,6.42,6.42,0,0,1-2.06-1.06,6.23,6.23,0,0,1-1.66-1.95,6,6,0,0,1-.67-2.92,13,13,0,0,1,.38-2.81,18.23,18.23,0,0,1,1.16-3.37,20.75,20.75,0,0,1,2-3.45,14.9,14.9,0,0,1,2.82-3.07,13.76,13.76,0,0,1,3.74-2.2A12.7,12.7,0,0,1,167.65,185Zm-1.52,5.15a5.59,5.59,0,0,0-2.65.68,8,8,0,0,0-2.25,1.82,9.29,9.29,0,0,0-1.56,2.54,7.57,7.57,0,0,0-.59,2.91,9,9,0,0,0,.09,1.21,4.17,4.17,0,0,0,.36,1.23,2.56,2.56,0,0,0,.81.95,2.37,2.37,0,0,0,1.4.38,5.26,5.26,0,0,0,2.62-.72,8.21,8.21,0,0,0,2.26-1.87,9.11,9.11,0,0,0,1.58-2.61,7.93,7.93,0,0,0,.59-3,10.24,10.24,0,0,0-.08-1.21,3,3,0,0,0-.35-1.15,2.22,2.22,0,0,0-.8-.87A2.68,2.68,0,0,0,166.13,190.11Z"/><path class="cls-5" d="M210.86,199.23a25.74,25.74,0,0,1-3,2.85,30.26,30.26,0,0,1-3.52,2.47,22.48,22.48,0,0,1-3.57,1.74,9.08,9.08,0,0,1-3.16.66,3.33,3.33,0,0,1-2.28-.79,3.52,3.52,0,0,1-.87-2.69,12.58,12.58,0,0,1,.46-3.13,15.86,15.86,0,0,1-1.9,2.31,15.24,15.24,0,0,1-2.6,2.13,13.38,13.38,0,0,1-3.27,1.57,12.53,12.53,0,0,1-4,.6,8.16,8.16,0,0,1-1.86-.21,4.11,4.11,0,0,1-1.56-.7,3.49,3.49,0,0,1-1.08-1.33,4.77,4.77,0,0,1-.41-2.09s0-.32.12-.89a15.53,15.53,0,0,1,.74-2.72q.63-1.86,1.95-4.81a80.64,80.64,0,0,1,3.71-7.16,4.1,4.1,0,0,1,1.42-1.6A3.3,3.3,0,0,1,188,185a4.18,4.18,0,0,1,.84.1,3.11,3.11,0,0,1,.82.32,2,2,0,0,1,.62.56,1.37,1.37,0,0,1,.23.77,1.69,1.69,0,0,1-.09.56,5.31,5.31,0,0,1-.63,1.3c-.32.54-.69,1.15-1.12,1.84l-1.36,2.24c-.48.8-.92,1.63-1.33,2.48a22.37,22.37,0,0,0-1,2.62,9.47,9.47,0,0,0-.5,2.59,1.72,1.72,0,0,0,.29,1,1.07,1.07,0,0,0,1,.44,6.87,6.87,0,0,0,3.62-1.05,15.08,15.08,0,0,0,3.19-2.62,24.56,24.56,0,0,0,2.64-3.36c.79-1.2,1.45-2.29,2-3.29a16,16,0,0,0,1-2.13,19.67,19.67,0,0,1,.92-2.11,6.18,6.18,0,0,1,1.14-1.6,2.36,2.36,0,0,1,3.27,0,2.32,2.32,0,0,1,.62,1.61,3.88,3.88,0,0,1-.4,1.45q-.39.92-1,2.1c-.4.79-.84,1.64-1.3,2.53s-.9,1.81-1.3,2.74a25.08,25.08,0,0,0-1,2.72,8.78,8.78,0,0,0-.39,2.47c0,.7.43,1.05,1.28,1.05a6.51,6.51,0,0,0,2.26-.53,16.68,16.68,0,0,0,2.82-1.47A27,27,0,0,0,208,198a19,19,0,0,0,2.62-2.78Z"/><path class="cls-5" d="M217.06,189.17a25.45,25.45,0,0,1,2.35-1.29c.81-.38,1.59-.72,2.35-1a18.55,18.55,0,0,1,2.18-.68,8.32,8.32,0,0,1,1.86-.24,3,3,0,0,1,2,.62,2.7,2.7,0,0,1,.72,2.12q0,.33,0,.69a6.2,6.2,0,0,1-.12.78,4.85,4.85,0,0,1-.88,1.78,24.17,24.17,0,0,1-1.71,2.13c-.65.74-1.35,1.49-2.1,2.24l-2.08,2.08c-.63.63-1.16,1.18-1.58,1.65s-.63.79-.63,1a1.12,1.12,0,0,0,0,.32q0,.09.27.09c1.05-.45,2.22-1,3.52-1.62s2.59-1.28,3.87-2,2.51-1.31,3.66-1.94,2.12-1.18,2.92-1.65a4.34,4.34,0,0,1,.54-.25,1.48,1.48,0,0,1,.51-.1,1.15,1.15,0,0,1,.88.35,1.22,1.22,0,0,1,.35.93,2.91,2.91,0,0,1-.57,1.54,7.46,7.46,0,0,1-1.91,1.8l-2.3,1.44c-.85.54-1.73,1.1-2.66,1.67s-1.86,1.14-2.8,1.68-1.86,1-2.74,1.46a21,21,0,0,1-2.47,1,6.47,6.47,0,0,1-2,.4,4.24,4.24,0,0,1-3-1,3.29,3.29,0,0,1-1-2.48,1.44,1.44,0,0,1,0-.35,9.56,9.56,0,0,1,.76-2.49,17.94,17.94,0,0,1,1.26-2.28c.47-.72.95-1.41,1.46-2.06s1-1.27,1.39-1.84a15.78,15.78,0,0,0,1-1.6,2.78,2.78,0,0,0,.41-1.34.72.72,0,0,0-.06-.29.25.25,0,0,0-.26-.15,4.51,4.51,0,0,0-1.16.26,15.9,15.9,0,0,0-1.71.7,13.36,13.36,0,0,0-1.72,1,3.61,3.61,0,0,0-1.17,1.22c-.31.54-.68,1.23-1.08,2.07l-1.28,2.63c-.44.92-.86,1.83-1.27,2.72l-1.05,2.31a5.82,5.82,0,0,1-.92,1.52,6.61,6.61,0,0,1-1.24,1.14,6.13,6.13,0,0,1-1.38.73,3.63,3.63,0,0,1-1.28.27,1.57,1.57,0,0,1-1.07-.35,1.45,1.45,0,0,1-.4-1.14,4,4,0,0,1,.11-.81,3.57,3.57,0,0,1,.42-1.07c.35-.66.71-1.38,1.07-2.16s.77-1.67,1.24-2.67l1.62-3.45c.62-1.3,1.34-2.8,2.18-4.49a3.26,3.26,0,0,1-.69-.86,2.73,2.73,0,0,1-.27-1.28,2.36,2.36,0,0,1,.29-1.21,2.33,2.33,0,0,1,.79-.83,3.41,3.41,0,0,1,1.15-.48,5.69,5.69,0,0,1,1.39-.17,8.68,8.68,0,0,1,1.52.14,5.29,5.29,0,0,1,1.36.39,3.26,3.26,0,0,1,1,.64,1.24,1.24,0,0,1,.38.88.6.6,0,0,1-.06.23l-.13.33c0,.11-.09.22-.13.32a.65.65,0,0,0-.06.23s0,.06,0,.06h0Z"/><path class="cls-5" d="M239.89,189.76a17,17,0,0,1,3.19,2.13,15.18,15.18,0,0,1,2.38,2.53,11.32,11.32,0,0,1,1.49,2.7,7.75,7.75,0,0,1,.51,2.69,5,5,0,0,1-1,3,8,8,0,0,1-2.48,2.25,12.82,12.82,0,0,1-3.51,1.4,16.39,16.39,0,0,1-4,.49,13.17,13.17,0,0,1-3-.34,9.08,9.08,0,0,1-2.61-1,7,7,0,0,1-2-1.8,6.53,6.53,0,0,1-1.2-2.61,1.62,1.62,0,0,1-.06-.38,1.87,1.87,0,0,1,.55-1.36,1.69,1.69,0,0,1,1.23-.57,2.8,2.8,0,0,1,.72.11,1,1,0,0,1,.6.53,4.09,4.09,0,0,0,1.07,1.26,6.92,6.92,0,0,0,1.53.95,8.87,8.87,0,0,0,1.8.61,8,8,0,0,0,1.85.22,9.48,9.48,0,0,0,1.8-.17,5.16,5.16,0,0,0,1.52-.56,2.92,2.92,0,0,0,1-1,2.62,2.62,0,0,0,.38-1.44,5.67,5.67,0,0,0-.67-2.74,9.9,9.9,0,0,0-1.74-2.33,16.78,16.78,0,0,0-2.43-2c-.9-.61-1.81-1.2-2.7-1.77a1.6,1.6,0,0,1-.44-.51,1.46,1.46,0,0,1-.29-.86.89.89,0,0,1,.17-.56,16.21,16.21,0,0,1,1.08-1.25,11.44,11.44,0,0,1,1.32-1.19,6.37,6.37,0,0,1,1.52-.87,4.34,4.34,0,0,1,1.7-.34,3.85,3.85,0,0,1,1.19.18,2.94,2.94,0,0,1,.94.45,2.47,2.47,0,0,1,.6.61,1.17,1.17,0,0,1,.22.63,1.61,1.61,0,0,1-.21.79,3,3,0,0,1-.54.73,6.5,6.5,0,0,1-.76.7C240.44,189.32,240.16,189.54,239.89,189.76Z"/><path class="cls-5" d="M262.49,184.93a5,5,0,0,1,3.63,1.17,4.36,4.36,0,0,1,1.19,3.25,5.94,5.94,0,0,1-.64,2.57,8.83,8.83,0,0,1-2.22,2.73,23.38,23.38,0,0,1-4.23,2.84,51,51,0,0,1-6.62,2.91,1.92,1.92,0,0,0,.91,1.33,3.73,3.73,0,0,0,2,.48,11.67,11.67,0,0,0,2.87-.39,24.75,24.75,0,0,0,3.05-1c1-.41,2-.85,2.93-1.33s1.82-.93,2.59-1.36,1.41-.8,1.93-1.11.86-.51,1-.59a1.12,1.12,0,0,1,.48-.2l.4,0a1,1,0,0,1,.58.16,1.41,1.41,0,0,1,.39.38,1.26,1.26,0,0,1,.22.47,1.76,1.76,0,0,1,.06.42,3.9,3.9,0,0,1-.06.63,1.89,1.89,0,0,1-.43.83c-.1.1-.43.36-1,.79s-1.28.94-2.15,1.52-1.9,1.21-3.06,1.86a38.09,38.09,0,0,1-3.68,1.8,30.09,30.09,0,0,1-4,1.36,16.66,16.66,0,0,1-4.15.54,7,7,0,0,1-3.12-.68,7,7,0,0,1-2.31-1.81,8.09,8.09,0,0,1-1.44-2.63,9.87,9.87,0,0,1-.5-3.13,8.88,8.88,0,0,1,.5-2.76,14.78,14.78,0,0,1,1.43-3,18.07,18.07,0,0,1,2.3-3,16.37,16.37,0,0,1,3-2.56,15.87,15.87,0,0,1,3.73-1.79A13.94,13.94,0,0,1,262.49,184.93Zm-1.05,4-.27,0h-.26a4.89,4.89,0,0,0-2.08.44,6.76,6.76,0,0,0-1.76,1.15,9.28,9.28,0,0,0-1.44,1.62c-.42.61-.79,1.21-1.12,1.8s-.61,1.17-.84,1.71-.39,1-.51,1.38c.69-.36,1.39-.75,2.12-1.2l2.06-1.29c.65-.41,1.21-.78,1.69-1.11s.81-.56,1-.67a6.34,6.34,0,0,0,1.82-1.54,2.29,2.29,0,0,0,.49-1.24.93.93,0,0,0-.27-.7A1.19,1.19,0,0,0,261.44,189Z"/><path class="cls-5" d="M274.86,197.77a12.6,12.6,0,0,0-.63,1.56,4.88,4.88,0,0,0-.31,1.59,1.24,1.24,0,0,0,.18.71.75.75,0,0,0,.67.26,4.19,4.19,0,0,0,1.53-.37,15.48,15.48,0,0,0,2-1q1.06-.6,2.22-1.38c.77-.51,1.54-1.05,2.3-1.6s1.48-1.11,2.18-1.67,1.31-1.07,1.85-1.53a1.38,1.38,0,0,1,.56-.3A2,2,0,0,1,288,194a1.27,1.27,0,0,1,1,.4,1.57,1.57,0,0,1,.38,1.09,3,3,0,0,1-.41,1.37,4.61,4.61,0,0,1-1.43,1.49q-1.87,1.72-3.77,3.28a38.51,38.51,0,0,1-3.79,2.73,21.2,21.2,0,0,1-3.74,1.89,10.36,10.36,0,0,1-3.61.7,5.35,5.35,0,0,1-2-.33,3.23,3.23,0,0,1-1.28-.87,3.34,3.34,0,0,1-.69-1.32,6,6,0,0,1-.2-1.61,10.86,10.86,0,0,1,.42-2.93,18,18,0,0,1,1-2.77q1-2.28,2.07-4.53t1.93-4.12l8.86-18.86a3.34,3.34,0,0,1,1.42-1.61,3.82,3.82,0,0,1,1.8-.46,2.93,2.93,0,0,1,1.65.49,1.8,1.8,0,0,1,.75,1.61,3,3,0,0,1-.25,1.11q-.25.58-.63,1.26-.73,1.38-1.74,3.36t-2.16,4.33q-1.15,2.34-2.37,4.87l-2.37,4.92q-1.15,2.4-2.16,4.55C275.92,195.47,275.34,196.71,274.86,197.77Z"/><path class="cls-5" d="M305.55,189.61l-2.88.09-2.64,0-2.54,0h-2.55c-.51,1-1.08,2.14-1.71,3.46l-2,4.14q-1,2.16-2.07,4.37t-2,4.18c-.62,1.31-1.19,2.5-1.69,3.57s-.92,1.9-1.23,2.52a6,6,0,0,1-.79,1.25,5.89,5.89,0,0,1-1,1,5,5,0,0,1-1.14.63,3.22,3.22,0,0,1-1.08.21,2.26,2.26,0,0,1-1.26-.35,1.21,1.21,0,0,1-.56-1.11,2.75,2.75,0,0,1,.18-.89,11.07,11.07,0,0,1,.5-1.18l10.32-21.87h-1.55a3.53,3.53,0,0,1-2.2-.5,1.49,1.49,0,0,1-.58-1.17,1.85,1.85,0,0,1,.73-1.36A3.09,3.09,0,0,1,288,186h3.45a43.47,43.47,0,0,1,4.17-6.9,23.65,23.65,0,0,1,4.11-4.29,12.63,12.63,0,0,1,3.93-2.2,12,12,0,0,1,3.67-.61,3.92,3.92,0,0,1,1.56.32,3.77,3.77,0,0,1,1.32,1,4.87,4.87,0,0,1,.92,1.62,6.89,6.89,0,0,1,.35,2.29,12.65,12.65,0,0,1-.35,2.78,1.51,1.51,0,0,1-.35.69,2.57,2.57,0,0,1-1.23.7,2.43,2.43,0,0,1-.55.07,2.29,2.29,0,0,1-1.09-.27.93.93,0,0,1-.49-.87,5.18,5.18,0,0,1,0-.7,4.6,4.6,0,0,0,0-.64,2.73,2.73,0,0,0-.46-1.76,1.52,1.52,0,0,0-1.21-.52,4,4,0,0,0-2.12.79,13.37,13.37,0,0,0-2.46,2.1,24,24,0,0,0-2.38,3A19.54,19.54,0,0,0,297,186h6.81c.61,0,1.17,0,1.7,0a6.91,6.91,0,0,1,1.39.18,2,2,0,0,1,.93.48,1.35,1.35,0,0,1,.34,1,1.77,1.77,0,0,1-.12.64,1.63,1.63,0,0,1-.39.6,2.25,2.25,0,0,1-.78.47A4.53,4.53,0,0,1,305.55,189.61Z"/><path class="cls-5" d="M346,197.8c-.35.33-.82.78-1.41,1.37s-1.25,1.22-2,1.9-1.55,1.37-2.4,2.06a27.26,27.26,0,0,1-2.6,1.89,18.49,18.49,0,0,1-2.61,1.39,6.31,6.31,0,0,1-2.43.54,3.4,3.4,0,0,1-1.76-.44,3.87,3.87,0,0,1-1.21-1.14,5.18,5.18,0,0,1-.72-1.6,7.38,7.38,0,0,1-.23-1.82,8.25,8.25,0,0,1,.09-1.22,5,5,0,0,1,.29-1.12c-.6.82-1.29,1.66-2.06,2.53a22.17,22.17,0,0,1-2.48,2.37,14.5,14.5,0,0,1-2.78,1.75,6.8,6.8,0,0,1-2.94.69,6.35,6.35,0,0,1-1.77-.31,5.78,5.78,0,0,1-1.91-1,5.63,5.63,0,0,1-1.52-1.81,5.55,5.55,0,0,1-.62-2.72,13.41,13.41,0,0,1,.37-2.87,20,20,0,0,1,1.11-3.46,20.74,20.74,0,0,1,1.9-3.55,15.77,15.77,0,0,1,2.73-3.15,13.51,13.51,0,0,1,3.6-2.25,11.39,11.39,0,0,1,4.5-.86,7.22,7.22,0,0,1,2.25.32,10.34,10.34,0,0,1,1.64.7,8.46,8.46,0,0,1,1.34,1c.33-.18.68-.34,1-.5a6.76,6.76,0,0,1,.92-.36,2.64,2.64,0,0,1,2.64.45,1.79,1.79,0,0,1,.71,1.34,2,2,0,0,1,0,.32c-.1.37-.25.84-.46,1.41l-.68,1.88c-.26.7-.52,1.42-.78,2.17s-.5,1.48-.72,2.2-.39,1.4-.52,2a7.65,7.65,0,0,0-.21,1.62,3.12,3.12,0,0,0,.3,1.45,1,1,0,0,0,1,.57,2.66,2.66,0,0,0,1-.28,10.86,10.86,0,0,0,1.3-.75c.47-.31.95-.66,1.45-1.06s1-.81,1.44-1.22c1.1-1,2.25-2.08,3.48-3.33a1.49,1.49,0,0,1,.91-.38,1.16,1.16,0,0,1,1,.57,2.19,2.19,0,0,1,.39,1.27A1.87,1.87,0,0,1,346,197.8Zm-20.26-7.55a5.54,5.54,0,0,0-2.66.7,8.25,8.25,0,0,0-2.28,1.85,9.08,9.08,0,0,0-1.58,2.55,7.47,7.47,0,0,0-.59,2.86,10.37,10.37,0,0,0,.08,1.21,3.33,3.33,0,0,0,.33,1.15,2.45,2.45,0,0,0,.75.88,2.18,2.18,0,0,0,1.3.35,2.83,2.83,0,0,0,1.5-.57,12.93,12.93,0,0,0,1.79-1.46,26.49,26.49,0,0,0,1.8-2c.58-.71,1.11-1.41,1.57-2.09a19.61,19.61,0,0,0,1.14-1.84,2.93,2.93,0,0,0,.44-1.2,1.5,1.5,0,0,0-.38-1,3.36,3.36,0,0,0-.93-.77,4.59,4.59,0,0,0-1.19-.49A4.86,4.86,0,0,0,325.76,190.25Z"/><path class="cls-5" d="M351.69,190q-1.08,2.1-2.05,4.11c-.64,1.33-1.24,2.57-1.81,3.7a17.53,17.53,0,0,0-.69,1.62,4.86,4.86,0,0,0-.33,1.62,1,1,0,0,0,.19.65.77.77,0,0,0,.63.23,4.28,4.28,0,0,0,1.54-.37,15.73,15.73,0,0,0,2-1q1.08-.6,2.28-1.38c.8-.51,1.59-1.05,2.36-1.6s1.5-1.11,2.2-1.67,1.33-1.07,1.88-1.53a1.53,1.53,0,0,1,.87-.33,1,1,0,0,1,.82.44,1.87,1.87,0,0,1,.32,1.11,3.38,3.38,0,0,1-.32,1.38,3.8,3.8,0,0,1-1.17,1.37q-1.9,1.72-3.84,3.28a41.72,41.72,0,0,1-3.86,2.73,21.93,21.93,0,0,1-3.79,1.89,10.45,10.45,0,0,1-3.62.7,5.52,5.52,0,0,1-2-.31,3.27,3.27,0,0,1-1.28-.85,3.12,3.12,0,0,1-.68-1.25,5.46,5.46,0,0,1-.21-1.54,10.17,10.17,0,0,1,.5-3,20.52,20.52,0,0,1,1.11-2.84c.59-1.2,1.17-2.4,1.74-3.59l1.68-3.42H345a3.56,3.56,0,0,1-2.25-.53,1.54,1.54,0,0,1-.61-1.2,1.75,1.75,0,0,1,.19-.71,2.49,2.49,0,0,1,.56-.79,3.1,3.1,0,0,1,.89-.63,2.59,2.59,0,0,1,1.2-.27h3.15l6.17-12.25a3.71,3.71,0,0,1,1.45-1.59,3.62,3.62,0,0,1,1.8-.48,2.88,2.88,0,0,1,1.61.47,1.71,1.71,0,0,1,.73,1.55,2.88,2.88,0,0,1-.25,1.12c-.17.38-.39.82-.66,1.33l-.64,1.19c-.26.45-.52.94-.81,1.46s-.57,1.05-.87,1.62-.6,1.11-.9,1.64q-1,1.88-2.1,3.94h9.53a10.14,10.14,0,0,1,1.29.08,3,3,0,0,1,1,.29,1.64,1.64,0,0,1,.65.6,1.88,1.88,0,0,1,.24,1,2.11,2.11,0,0,1-.11.65,1.3,1.3,0,0,1-.38.58,2,2,0,0,1-.76.44,4.65,4.65,0,0,1-1.24.23Z"/><path class="cls-5" d="M369.64,201.6c.47-1,1-2.1,1.61-3.32s1.21-2.43,1.83-3.63,1.19-2.34,1.73-3.42,1-2,1.38-2.76l9.65-19a2.26,2.26,0,0,1,.54-.74,4.38,4.38,0,0,1,.83-.62,3.9,3.9,0,0,1,1-.44,3.48,3.48,0,0,1,1.05-.16A2.55,2.55,0,0,1,391,168a1.58,1.58,0,0,1,.5,1.18,3.4,3.4,0,0,1-.32,1.36,9.91,9.91,0,0,1-.73,1.33q-1.29,2.19-2.48,4.43l-2.36,4.5q-1.18,2.27-2.39,4.51c-.8,1.49-1.63,3-2.51,4.43.54-.53,1.13-1.08,1.74-1.64a14.6,14.6,0,0,1,2-1.55,11.34,11.34,0,0,1,2.37-1.16,9.19,9.19,0,0,1,4.65-.27,4.36,4.36,0,0,1,1.49.57,2.79,2.79,0,0,1,1,1.08,3.37,3.37,0,0,1,.38,1.68,7.12,7.12,0,0,1-.39,2.41,10.8,10.8,0,0,1-1,2.08,20.52,20.52,0,0,1-1.34,1.87c-.49.59-1,1.2-1.39,1.81a12.45,12.45,0,0,0-1.14,1.92,6,6,0,0,0-.6,2.16.5.5,0,0,1,0,.12.41.41,0,0,0,0,.11c0,.39.13.64.39.73a2.91,2.91,0,0,0,1,.15,5.2,5.2,0,0,0,1.7-.31,10.7,10.7,0,0,0,1.82-.81c.62-.35,1.23-.73,1.85-1.16s1.19-.87,1.75-1.32,1.07-.88,1.53-1.3.87-.78,1.2-1.09a1.69,1.69,0,0,1,.56-.35,1.44,1.44,0,0,1,.55-.12,1.2,1.2,0,0,1,.9.39,1.54,1.54,0,0,1,.36,1.07,3,3,0,0,1-.42,1.4,5.1,5.1,0,0,1-1.45,1.58c-1.07.94-2.16,1.84-3.27,2.69a31.23,31.23,0,0,1-3.37,2.28,18.56,18.56,0,0,1-3.37,1.58A10,10,0,0,1,387,207a5.37,5.37,0,0,1-3.33-.95,3.53,3.53,0,0,1-1.26-3,7.83,7.83,0,0,1,.51-2.82,15.68,15.68,0,0,1,1.26-2.57,27.69,27.69,0,0,1,1.59-2.4,24.44,24.44,0,0,0,1.49-2.27,5.44,5.44,0,0,0,.54-.92,2.17,2.17,0,0,0,.19-.92,1.13,1.13,0,0,0-.23-.72.92.92,0,0,0-.73-.27,6.29,6.29,0,0,0-3.19.84,11.93,11.93,0,0,0-2.69,2.17,23.29,23.29,0,0,0-2.28,2.88c-.7,1-1.35,2-2,3-.27.43-.55.93-.83,1.48s-.58,1.13-.88,1.71-.62,1.17-.95,1.74a11.79,11.79,0,0,1-1,1.54,5.74,5.74,0,0,1-1.14,1.08,2.19,2.19,0,0,1-1.24.41,2.05,2.05,0,0,1-1.58-.6,2.13,2.13,0,0,1-.55-1.51,4.62,4.62,0,0,1,.23-1.42A14.8,14.8,0,0,1,369.64,201.6Z"/><path class="cls-5" d="M411.42,185a11,11,0,0,1,2.38.29,7.32,7.32,0,0,1,2.35,1,5.69,5.69,0,0,1,1.8,1.85,5.29,5.29,0,0,1,.72,2.85,10.41,10.41,0,0,1-.23,2,16.29,16.29,0,0,1-.71,2.35,1.72,1.72,0,0,0,.68.5,2.16,2.16,0,0,0,.81.14,3.12,3.12,0,0,0,1.36-.35,10,10,0,0,0,1.54-.9,17.42,17.42,0,0,0,1.58-1.26c.52-.47,1-.94,1.49-1.4s.89-.92,1.27-1.33l1-1.07a.67.67,0,0,1,.5-.21.94.94,0,0,1,.73.43A2,2,0,0,1,429,191a4.39,4.39,0,0,1-.45,1.76,6.61,6.61,0,0,1-1.68,2.07c-.47.51-1,1.09-1.61,1.76a24.34,24.34,0,0,1-1.93,1.87,13.07,13.07,0,0,1-2.14,1.49,4.54,4.54,0,0,1-2.22.61,4.81,4.81,0,0,1-1.47-.23,5.48,5.48,0,0,1-1.45-.76,17.8,17.8,0,0,1-2.4,3,14.36,14.36,0,0,1-3,2.31,15.44,15.44,0,0,1-3.56,1.51A15,15,0,0,1,403,207a6.6,6.6,0,0,1-1.9-.33,6.42,6.42,0,0,1-2.06-1.06,6.08,6.08,0,0,1-1.65-1.95,5.87,5.87,0,0,1-.68-2.92,13,13,0,0,1,.38-2.81,19,19,0,0,1,1.16-3.37,20.75,20.75,0,0,1,2-3.45A15.18,15.18,0,0,1,403,188a13.76,13.76,0,0,1,3.74-2.2A12.7,12.7,0,0,1,411.42,185Zm-1.52,5.15a5.59,5.59,0,0,0-2.65.68,8,8,0,0,0-2.25,1.82,9.29,9.29,0,0,0-1.56,2.54,7.57,7.57,0,0,0-.59,2.91,9,9,0,0,0,.09,1.21,3.91,3.91,0,0,0,.37,1.23,2.45,2.45,0,0,0,.8.95,2.37,2.37,0,0,0,1.4.38,5.26,5.26,0,0,0,2.62-.72,8.4,8.4,0,0,0,2.27-1.87,9.31,9.31,0,0,0,1.57-2.61,7.93,7.93,0,0,0,.59-3c0-.39,0-.79-.07-1.21a3.16,3.16,0,0,0-.36-1.15,2.22,2.22,0,0,0-.8-.87A2.68,2.68,0,0,0,409.9,190.11Z"/><path class="cls-5" d="M432.76,205.22a7.19,7.19,0,0,1,.63-2.86,22.57,22.57,0,0,1,1.59-3c.65-1,1.35-2.09,2.11-3.15s1.48-2.15,2.16-3.26a6,6,0,0,0,.47-.89,2.16,2.16,0,0,0,.17-.86,1.15,1.15,0,0,0-.26-.78,1,1,0,0,0-.76-.3,5.47,5.47,0,0,0-2.31.51,10.1,10.1,0,0,0-2.13,1.34,15.33,15.33,0,0,0-1.95,1.92c-.61.72-1.19,1.46-1.72,2.23s-1,1.54-1.51,2.3L428,200.49a17,17,0,0,0-1,2.1,19.67,19.67,0,0,1-.95,2.11,7.29,7.29,0,0,1-1.15,1.62,2.34,2.34,0,0,1-3.28,0,2.27,2.27,0,0,1-.61-1.6,5.47,5.47,0,0,1,.38-1.64c.25-.74.58-1.6,1-2.59s.85-2,1.36-3.14,1-2.21,1.5-3.31l1.41-3.08c.43-1,.8-1.79,1.09-2.47a4.24,4.24,0,0,1,1.39-1.87,3,3,0,0,1,1.71-.62,1.84,1.84,0,0,1,1.3.55,2,2,0,0,1,.57,1.56,4.76,4.76,0,0,1-.35,1.67l1.7-1.58a15.25,15.25,0,0,1,2-1.57,11,11,0,0,1,2.38-1.18,8.84,8.84,0,0,1,3-.47,5.63,5.63,0,0,1,1.55.21,3.76,3.76,0,0,1,1.3.64,3.29,3.29,0,0,1,.93,1.14,4.08,4.08,0,0,1,.43,1.69c.44-.44.93-.89,1.46-1.33a11.75,11.75,0,0,1,1.71-1.18,9.7,9.7,0,0,1,2-.85,8.55,8.55,0,0,1,2.4-.32,7.86,7.86,0,0,1,1.84.21,4.31,4.31,0,0,1,1.56.68,3.47,3.47,0,0,1,1.09,1.25A4,4,0,0,1,458,189a7.3,7.3,0,0,1-.8,3.33,16,16,0,0,1-1.89,2.89q-.34.45-.93,1.11c-.4.45-.78.93-1.15,1.44a11.1,11.1,0,0,0-1,1.56,3.4,3.4,0,0,0-.41,1.51c0,.43.13.7.4.82a2.66,2.66,0,0,0,1,.17,5.84,5.84,0,0,0,2.66-.73,18.72,18.72,0,0,0,2.8-1.77,31.7,31.7,0,0,0,2.54-2.16q1.19-1.12,1.89-1.89a1,1,0,0,1,.4-.29,1.35,1.35,0,0,1,.47-.09,1.27,1.27,0,0,1,.95.47,1.72,1.72,0,0,1,.43,1.23,2.91,2.91,0,0,1-.35,1.28,4.4,4.4,0,0,1-1.2,1.38c-1.06,1-2.13,2-3.23,2.91a31.59,31.59,0,0,1-3.34,2.45A18.37,18.37,0,0,1,454,206.3a9.27,9.27,0,0,1-3.35.65,5.53,5.53,0,0,1-3.49-1,3.82,3.82,0,0,1-1.33-3.24,6.86,6.86,0,0,1,.56-2.75,13.93,13.93,0,0,1,1.37-2.47c.55-.79,1.12-1.55,1.72-2.3a19,19,0,0,0,1.58-2.22,6,6,0,0,0,.47-.89,2.18,2.18,0,0,0,.18-.86,1.16,1.16,0,0,0-.27-.78,1,1,0,0,0-.76-.3,5.47,5.47,0,0,0-2.31.51,10.1,10.1,0,0,0-2.13,1.34,16,16,0,0,0-1.95,1.92c-.61.72-1.18,1.46-1.72,2.23s-1,1.54-1.51,2.3-.89,1.45-1.28,2.08a18.64,18.64,0,0,0-1,2.1,19.67,19.67,0,0,1-.95,2.11,7,7,0,0,1-1.15,1.62,2.16,2.16,0,0,1-1.61.66,2.46,2.46,0,0,1-.76-.14,2.88,2.88,0,0,1-.75-.36,2.25,2.25,0,0,1-.55-.56A1.35,1.35,0,0,1,432.76,205.22Z"/><path class="cls-5" d="M475,184.93a5,5,0,0,1,3.62,1.17,4.32,4.32,0,0,1,1.2,3.25,5.94,5.94,0,0,1-.64,2.57,8.83,8.83,0,0,1-2.22,2.73,23.74,23.74,0,0,1-4.23,2.84,51,51,0,0,1-6.62,2.91,1.92,1.92,0,0,0,.91,1.33,3.71,3.71,0,0,0,2,.48,11.68,11.68,0,0,0,2.88-.39,24.06,24.06,0,0,0,3-1c1-.41,2-.85,2.94-1.33s1.82-.93,2.59-1.36,1.41-.8,1.93-1.11.86-.51,1-.59a1.07,1.07,0,0,1,.48-.2l.39,0a1,1,0,0,1,.59.16,1.57,1.57,0,0,1,.39.38,1.26,1.26,0,0,1,.22.47,1.76,1.76,0,0,1,.06.42,3.9,3.9,0,0,1-.06.63,1.82,1.82,0,0,1-.44.83,12.27,12.27,0,0,1-1,.79c-.55.43-1.27.94-2.14,1.52s-1.9,1.21-3.06,1.86a38.09,38.09,0,0,1-3.68,1.8,30.09,30.09,0,0,1-4.05,1.36A16.66,16.66,0,0,1,467,207a7,7,0,0,1-3.12-.68,7,7,0,0,1-2.31-1.81,8.09,8.09,0,0,1-1.44-2.63,9.59,9.59,0,0,1-.5-3.13,8.6,8.6,0,0,1,.5-2.76,14.27,14.27,0,0,1,1.43-3,18.56,18.56,0,0,1,2.29-3,16.77,16.77,0,0,1,3.06-2.56,15.87,15.87,0,0,1,3.73-1.79A13.94,13.94,0,0,1,475,184.93Zm-1.05,4-.27,0h-.26a4.89,4.89,0,0,0-2.08.44,7,7,0,0,0-1.77,1.15,9.64,9.64,0,0,0-1.43,1.62c-.42.61-.79,1.21-1.12,1.8s-.61,1.17-.84,1.71-.39,1-.51,1.38c.68-.36,1.39-.75,2.12-1.2l2.06-1.29q1-.62,1.68-1.11c.48-.33.82-.56,1-.67a6.14,6.14,0,0,0,1.81-1.54,2.24,2.24,0,0,0,.5-1.24.9.9,0,0,0-.28-.7A1.13,1.13,0,0,0,473.93,189Z"/></g></svg>