<svg id="logo" xmlns="http://www.w3.org/2000/svg" viewBox="0 0 1186.7 252.87"><defs><style>.cls-1,.cls-2,.cls-3,.cls-4{fill:none;stroke-miterlimit:10;}.cls-1,.cls-2{stroke:#000;}.cls-1{stroke-linecap:round;}.cls-1,.cls-2,.cls-4{stroke-width:10px;}.cls-3{stroke:#f1670c;stroke-width:6px;}.cls-4{stroke:#1898d5;}.cls-5{fill:#146484;}.cls-6{fill:#1898d5;}</style></defs><title>logo_thermosecurity</title><g id="shield_copy" data-name="shield copy"><g id="thermometer"><path class="cls-1" d="M98.17,192.8a19.25,19.25,0,0,1-19.24-19.24,18.85,18.85,0,0,1,4.53-12.45" transform="translate(-4.3 -2.66)"/><path class="cls-1" d="M111.8,160l0-47.68v-6.64" transform="translate(-4.3 -2.66)"/><path class="cls-1" d="M83.46,105.66V160" transform="translate(-4.3 -2.66)"/><path class="cls-1" d="M83.46,105.09a14.15,14.15,0,0,1,28.29,0" transform="translate(-4.3 -2.66)"/></g><g id="Layer_18_copy_2-2" data-name="Layer 18 copy 2"><path class="cls-2" d="M66.9,170.35c-5.38-5.5-9.67-11.76-11-18.41C51.42,129.56,52,83.11,52,83.11L99,65h0l47,18.11s.56,46.45-3.92,68.83-42.53,40.3-42.53,40.3l-3.06.84" transform="translate(-4.3 -2.66)"/></g></g><g id="orange_shield" data-name="orange shield"><g id="Layer_18_copy_4" data-name="Layer 18 copy 4"><path class="cls-3" d="M99,231s-61.61-29.84-68.74-65.48S24,56,24,56L99,28h0l74.79,28s.89,73.94-6.23,109.57S99,231,99,231Z" transform="translate(-4.3 -2.66)"/></g></g><g id="blue_shield" data-name="blue shield"><g id="Layer_18_copy_5-2" data-name="Layer 18 copy 5"><path class="cls-4" d="M99,250s-73.68-34.69-82.2-77.31S9.34,41.63,9.34,41.63L99,8h0l89.47,33.63s1.07,88.44-7.45,131.06S99,250,99,250Z" transform="translate(-4.3 -2.66)"/></g></g><path class="cls-5" d="M211.17,114.68H200.8V99.84h10.37V78h18.35V99.84h21.39v14.84H229.52v48.67c0,6.54,2.56,9.26,10.22,9.26h11.17v15.16H236.55c-15.64,0-25.38-6.55-25.38-24.42Z" transform="translate(-4.3 -2.66)"/><path class="cls-5" d="M250.7,69.68h18.19v40.37c6.07-7.34,16-11.65,27.29-11.65,19.63,0,34.95,12.93,34.95,37.5v51.87h-18V138.62c0-16.12-8.78-24.42-22-24.42-13.41,0-22.19,8.3-22.19,24.42v49.15H250.7Z" transform="translate(-4.3 -2.66)"/><path class="cls-5" d="M374.13,189.2c-25.21,0-43.89-17.87-43.89-45.48S348.12,98.4,374.13,98.4c25.05,0,42.77,17.4,42.77,43.25a55.89,55.89,0,0,1-.64,8.93H349.07c1.28,14.52,11.65,23.3,25.06,23.3,11.17,0,17.39-5.42,20.74-12.29H414.5C409.56,176.91,395.67,189.2,374.13,189.2Zm-24.9-53.3h48.68c-.32-13.56-11-22.18-24.58-22.18C361,113.72,351.15,122,349.23,135.9Z" transform="translate(-4.3 -2.66)"/><path class="cls-5" d="M435,187.77H416.81V99.84H435V112.6c5.11-8.77,14.55-12.6,27-12.6l-.67,17.23H456.7c-13.4,0-21.7,5.59-21.7,24.26Z" transform="translate(-4.3 -2.66)"/><path class="cls-5" d="M585.76,138.62c0-16.12-8.78-24.42-22-24.42-13.41,0-22.19,8.3-22.19,24.42v49.15h-18V138.62c0-16.12-8.78-24.42-22-24.42-13.41,0-22.18,8.3-22.18,24.42v49.15H461.13V99.84h18.19v10c5.9-7.18,15.48-11.49,26-11.49,13.88,0,25.53,5.91,31.59,17.4,5.43-10.7,17.88-17.4,30.64-17.4,20.59,0,36.23,12.93,36.23,37.5v51.87h-18Z" transform="translate(-4.3 -2.66)"/><path class="cls-5" d="M647.1,189.2c-25.05,0-44-17.87-44-45.48S622.85,98.4,647.9,98.4s44.84,17.72,44.84,45.32S672.32,189.2,647.1,189.2Zm0-15.8c13.57,0,27-9.73,27-29.68s-12.92-29.52-26.49-29.52c-13.72,0-26,9.57-26,29.52S633.38,173.4,647.1,173.4Z" transform="translate(-4.3 -2.66)"/><path class="cls-6" d="M733.73,189.2c-21.07,0-35.91-12.44-36.7-28.4h18.83c.63,7.18,7.5,13.08,17.55,13.08,10.53,0,16.12-4.47,16.12-10.53,0-17.23-51.07-7.34-51.07-39.58,0-14,13.09-25.37,33.83-25.37,20,0,33,10.69,34,28.25H748.09c-.64-7.66-6.54-12.93-16.43-12.93s-14.85,4-14.85,9.89c0,17.72,49.63,7.82,50.59,39.58C767.4,178,754.48,189.2,733.73,189.2Z" transform="translate(-4.3 -2.66)"/><path class="cls-6" d="M807.89,189.2c-25.21,0-43.88-17.87-43.88-45.48S781.88,98.4,807.89,98.4c25.05,0,42.77,17.4,42.77,43.25a55.89,55.89,0,0,1-.64,8.93H782.84c1.27,14.52,11.65,23.3,25,23.3,11.17,0,17.39-5.42,20.74-12.29h19.63C843.32,176.91,829.43,189.2,807.89,189.2ZM783,135.9h48.68c-.32-13.56-11-22.18-24.58-22.18C794.8,113.72,784.91,122,783,135.9Z" transform="translate(-4.3 -2.66)"/><path class="cls-6" d="M892.59,98.4c21.54,0,35.59,10.69,40.53,29.21H913.49c-3-8.46-10-13.89-20.9-13.89-14.68,0-24.42,10.85-24.42,30,0,19.31,9.74,30.16,24.42,30.16,10.85,0,17.55-4.78,20.9-13.88h19.63c-4.94,17.23-19,29.2-40.53,29.2-25.21,0-43.09-17.87-43.09-45.48C849.5,116.27,867.38,98.4,892.59,98.4Z" transform="translate(-4.3 -2.66)"/><path class="cls-6" d="M1013,187.77H994.79V177.23c-5.74,7.5-15.64,11.81-26,11.81-20.58,0-36.22-12.92-36.22-37.5V99.84h18v49c0,16.12,8.78,24.41,22,24.41,13.41,0,22.18-8.29,22.18-24.41v-49H1013Z" transform="translate(-4.3 -2.66)"/><path class="cls-6" d="M1013.15,187.77H995V99.84h18.19V112.6c5.11-8.77,15.4-12.6,27.85-12.6l-1.52,17.23h-4.63c-13.4,0-21.7,5.59-21.7,24.26Z" transform="translate(-4.3 -2.66)"/><path class="cls-6" d="M1036.88,76.54a11.57,11.57,0,1,1,11.65,11.65A11.52,11.52,0,0,1,1036.88,76.54Zm2.4,23.3h18.19v87.93h-18.19Z" transform="translate(-4.3 -2.66)"/><path class="cls-6" d="M1067.32,114.68h-10.38V99.84h10.38V78h18.35V99.84h21.38v14.84h-21.38v48.67c0,6.54,2.55,9.26,10.21,9.26h11.17v15.16h-14.36c-15.64,0-25.37-6.55-25.37-24.42Z" transform="translate(-4.3 -2.66)"/><path class="cls-6" d="M1172.17,99.84H1191L1137.06,229.1h-18.83l17.87-42.77-34.62-86.49h20.26l24.74,67Z" transform="translate(-4.3 -2.66)"/></svg>